<svg xmlns="http://www.w3.org/2000/svg" viewBox="0 0 512 512" style="height: 512px; width: 512px;"><g class="" transform="translate(0,0)" style=""><g transform="translate(25.6, 25.6) scale(0.9, 0.9) rotate(0, 256, 256) skewX(0) skewY(0)"><path d="M143.627 36.361C141.447 36.361 127.132 74.664 125.369 75.945C123.606 77.226 82.754 79.005 82.08 81.078C81.407 83.151 113.41 108.601 114.084 110.674C114.758 112.747 103.824 152.149 105.588 153.43C107.351 154.71 141.448 132.139 143.627 132.139C145.807 132.139 179.903 154.711 181.666 153.429C183.429 152.149 172.496 112.747 173.17 110.674C173.843 108.601 205.847 83.151 205.174 81.078C204.5 79.005 163.648 77.226 161.884 75.945C160.121 74.665 145.807 36.361 143.627 36.361Z" class="" fill="#000000" fill-opacity="1"></path><path d="M368.373 36.361C366.193 36.361 351.879 74.664 350.115 75.945C348.352 77.226 307.5 79.005 306.826 81.078C306.153 83.151 338.156 108.601 338.83 110.674C339.504 112.747 328.57 152.149 330.334 153.43C332.097 154.71 366.194 132.139 368.373 132.139C370.553 132.139 404.649 154.711 406.413 153.429C408.175 152.149 397.243 112.747 397.916 110.674C398.59 108.601 430.593 83.151 429.92 81.078C429.246 79.005 388.394 77.226 386.63 75.945C384.868 74.665 370.553 36.361 368.373 36.361Z" class="" fill="#000000" fill-opacity="1"></path><path d="M256 39.883C248.88 39.883 202.116 165.006 196.355 169.191C190.595 173.376 57.144 179.187 54.943 185.959C52.743 192.731 157.292 275.871 159.493 282.643C161.693 289.414 125.98 418.129 131.74 422.314C137.5 426.5 248.88 352.76 256 352.76C263.12 352.76 374.5 426.5 380.26 422.314C386.02 418.129 350.308 289.414 352.508 282.643C354.708 275.871 459.257 192.731 457.057 185.959C454.857 179.187 321.405 173.376 315.645 169.191C309.885 165.006 263.12 39.883 256 39.883Z" class="" fill="#000000" fill-opacity="1"></path><path d="M77.973 243.102C75.793 243.102 61.478 281.404 59.715 282.686C57.952 283.966 17.099 285.746 16.425 287.818C15.752 289.891 47.758 315.341 48.432 317.414C49.105 319.487 38.172 358.889 39.936 360.17C41.699 361.451 75.793 338.879 77.973 338.879C80.153 338.879 114.248 361.451 116.012 360.169C117.775 358.889 106.842 319.487 107.516 317.414C108.189 315.341 140.195 289.891 139.521 287.818C138.848 285.745 97.996 283.967 96.232 282.686C94.469 281.404 80.152 243.102 77.972 243.102Z" class="" fill="#000000" fill-opacity="1"></path><path d="M434.027 243.102C431.847 243.102 417.531 281.404 415.767 282.686C414.004 283.966 373.152 285.746 372.479 287.818C371.805 289.891 403.811 315.341 404.484 317.414C405.158 319.487 394.224 358.889 395.988 360.17C397.752 361.451 431.848 338.879 434.028 338.879C436.207 338.879 470.301 361.451 472.064 360.169C473.828 358.889 462.894 319.487 463.568 317.414C464.242 315.341 496.248 289.891 495.574 287.818C494.901 285.745 454.048 283.967 452.285 282.686C450.522 281.404 436.207 243.102 434.027 243.102Z" class="" fill="#9b9b9b" fill-opacity="1"></path><path d="M256 369.932C253.82 369.932 239.506 408.234 237.742 409.516C235.979 410.796 195.127 412.576 194.453 414.648C193.78 416.721 225.783 442.173 226.457 444.246C227.131 446.319 216.197 485.721 217.961 487.002C219.724 488.283 253.821 465.709 256 465.709C258.18 465.709 292.276 488.283 294.04 487.002C295.802 485.721 284.87 446.319 285.543 444.246C286.216 442.173 318.22 416.721 317.547 414.648C316.873 412.576 276.021 410.797 274.257 409.516C272.494 408.234 258.18 369.932 256 369.932Z" class="selected" fill="#9b9b9b" fill-opacity="1"></path></g></g></svg>