<svg xmlns="http://www.w3.org/2000/svg" viewBox="0 0 512 512" style="height: 512px; width: 512px;"><g class="" transform="translate(0,0)" style=""><g transform="translate(25.6, 25.6) scale(0.9, 0.9) rotate(0, 256, 256) skewX(0) skewY(0)"><path d="M256.65 38.984L206.953 139.686L95.823 155.832L176.236 234.217L157.254 344.897L256.65 292.641L356.047 344.897L337.064 234.217L417.477 155.833L306.35 139.687L256.65 38.985Z" class="" fill="#000000" fill-opacity="1"></path><path d="M112 308.826L85.326 362.876L25.68 371.541L68.84 413.614L58.652 473.017L112 444.97L165.348 473.016L155.16 413.613L198.32 371.541L138.674 362.876L112 308.825Z" class="" fill="#000000" fill-opacity="1"></path><path d="M400 308.826L373.326 362.876L313.68 371.541L356.84 413.614L346.652 473.017L400 444.97L453.348 473.016L443.16 413.613L486.32 371.541L426.674 362.876L400 308.825Z" class="selected" fill="#000000" fill-opacity="1"></path></g></g></svg>